<?xml version="1.0" standalone="no"?>
<!DOCTYPE svg PUBLIC "-//W3C//DTD SVG 20010904//EN"
 "http://www.w3.org/TR/2001/REC-SVG-20010904/DTD/svg10.dtd">
<svg version="1.0" xmlns="http://www.w3.org/2000/svg"
 width="260.000000pt" height="260.000000pt" viewBox="0 0 260.000000 260.000000"
 preserveAspectRatio="xMidYMid meet">
<metadata>
Created by potrace 1.14, written by Peter Selinger 2001-2017
</metadata>
<g transform="translate(0.000000,260.000000) scale(0.100000,-0.100000)"
fill="#000000" stroke="none">
<path d="M2132 2417 c-59 -293 -77 -406 -87 -561 -7 -98 -21 -131 -57 -131
-14 0 -29 -3 -33 -7 -4 -4 -13 -4 -20 -2 -16 7 -37 -48 -60 -151 -18 -86 -48
-195 -71 -260 -16 -47 -73 -262 -84 -320 -10 -52 -52 -167 -58 -160 -9 9 -1
191 13 275 13 80 41 216 80 390 23 102 25 264 5 285 -13 13 -20 13 -43 3 -20
-10 -41 -41 -81 -123 -51 -103 -116 -287 -116 -327 0 -10 -5 -18 -11 -18 -8 0
-9 12 -5 38 30 176 48 297 51 348 4 54 1 64 -20 84 -19 18 -31 21 -59 16 -25
-5 -36 -12 -36 -24 0 -19 -101 -137 -132 -153 -16 -9 -24 -6 -44 16 -13 15
-30 25 -36 23 -15 -5 -84 -130 -135 -248 -23 -52 -47 -96 -54 -99 -8 -2 -10 4
-5 22 3 14 7 80 7 147 2 143 -4 156 -59 124 -36 -21 -37 -23 -49 -111 -13 -88
-24 -127 -76 -263 -27 -72 -54 -95 -44 -39 3 19 14 132 23 251 14 177 15 220
4 232 -15 19 -29 20 -52 2 -13 -9 -21 -45 -33 -145 -8 -73 -15 -150 -15 -171
0 -41 -54 -184 -111 -290 -24 -47 -40 -65 -54 -65 -28 0 -44 55 -40 139 4 73
-1 63 102 207 57 80 87 213 59 267 -19 37 -40 40 -76 12 -14 -11 -34 -20 -46
-20 -18 0 -23 -11 -37 -87 -10 -49 -22 -126 -28 -173 -9 -75 -14 -89 -42 -117
-56 -59 -56 -57 -54 208 l2 241 -24 19 c-27 22 -59 25 -67 5 -3 -8 -13 -12
-23 -9 -14 3 -22 -13 -46 -91 -16 -53 -33 -96 -37 -96 -10 0 -10 -1 2 140 10
120 12 139 29 281 14 123 -4 189 -54 189 -14 0 -26 -9 -33 -26 -7 -14 -16 -23
-21 -20 -15 10 -21 -36 -10 -84 12 -50 6 -169 -17 -350 -35 -276 -28 -558 18
-695 18 -53 19 -66 8 -112 -27 -111 16 -278 77 -306 24 -10 29 -8 58 26 32 37
45 74 76 227 20 101 39 227 39 263 0 27 7 44 23 60 34 32 69 59 71 55 1 -2 8
-32 14 -67 16 -92 50 -155 84 -159 22 -3 32 4 52 35 21 32 62 127 90 206 8 23
26 13 26 -15 0 -12 11 -41 25 -65 25 -42 53 -55 80 -35 14 9 55 109 55 133 0
10 5 21 10 24 28 17 2 -192 -32 -258 -22 -44 -68 -180 -68 -202 0 -9 -4 -23
-9 -33 -18 -36 -61 -190 -71 -256 -15 -94 -15 -292 0 -344 12 -46 35 -62 91
-62 26 0 33 6 49 43 39 89 70 308 121 852 13 143 30 197 115 369 46 91 73 124
60 71 -3 -13 -6 -75 -7 -138 0 -91 4 -124 21 -169 34 -91 63 -100 99 -30 47
92 64 292 37 422 l-14 65 67 61 c36 34 67 61 69 59 1 -1 -4 -54 -13 -116 -9
-63 -19 -182 -22 -265 -5 -126 -3 -159 11 -201 15 -46 31 -63 56 -63 21 0 46
67 86 234 47 189 100 356 115 356 12 0 12 3 -15 -124 -62 -281 -81 -434 -74
-582 6 -110 26 -187 53 -197 22 -9 53 21 69 65 8 24 33 124 55 223 51 225 60
255 71 255 6 0 10 -11 10 -25 0 -32 29 -93 48 -100 9 -3 23 2 33 12 16 17 69
168 69 199 0 7 5 14 10 14 6 0 10 -26 11 -57 0 -59 46 -210 62 -206 5 2 10 47
13 100 2 54 9 163 15 243 6 80 12 186 13 235 2 50 8 115 14 145 7 30 19 127
28 215 8 88 20 180 26 205 10 46 37 216 38 236 0 19 -38 56 -51 49 -6 -4 -14
-3 -18 4 -4 6 -17 -40 -29 -102z m-132 -804 c-1 -8 -4 -22 -40 -193 -42 -203
-78 -269 -65 -122 13 157 29 225 67 290 18 29 39 43 38 25z m-1371 -123 c1
-27 -47 -130 -61 -130 -4 0 -8 2 -8 4 0 14 32 140 41 163 10 26 12 27 19 8 5
-11 9 -31 9 -45z m651 -34 c26 -111 -6 -376 -46 -376 -22 0 -26 137 -10 270
25 194 32 207 56 106z m-955 -143 c-4 -97 -12 -186 -17 -199 -9 -19 -55 -50
-64 -41 -2 1 1 48 7 102 11 111 58 315 72 315 6 0 7 -68 2 -177z m-20 -330
c-2 -16 -7 -68 -10 -118 -7 -108 -25 -173 -61 -221 -27 -35 -28 -35 -46 -16
-44 44 -29 207 24 268 10 11 18 27 18 35 0 19 51 79 67 79 8 0 11 -10 8 -27z
m580 -364 c-8 -96 -19 -212 -25 -259 -11 -86 -38 -180 -52 -180 -14 0 -21 74
-15 179 5 107 28 228 68 356 39 129 42 119 24 -96z"/>
<path d="M2180 702 c-35 -36 -50 -87 -50 -175 0 -126 37 -207 95 -207 31 0 76
45 68 66 -5 12 -10 11 -29 -7 -56 -53 -114 19 -113 141 0 81 16 127 51 153
l28 21 29 -22 c25 -18 30 -19 35 -6 8 20 -37 64 -64 64 -12 0 -34 -13 -50 -28z"/>
<path d="M2397 719 c-9 -5 -27 -29 -39 -52 -19 -35 -23 -58 -23 -142 0 -85 4
-107 23 -143 29 -54 63 -72 100 -51 45 25 66 74 70 168 5 103 -9 164 -48 203
-30 29 -53 34 -83 17z m66 -49 c65 -51 64 -236 -2 -294 -17 -16 -25 -17 -46
-8 -41 19 -59 67 -59 157 0 84 17 134 51 154 25 14 27 14 56 -9z"/>
<path d="M1150 526 c0 -119 4 -197 10 -201 7 -4 10 49 10 151 0 96 4 154 9
149 5 -6 35 -74 66 -153 32 -78 61 -145 66 -148 5 -3 9 80 9 195 0 127 -4 201
-10 201 -6 0 -10 -57 -10 -152 0 -83 -3 -149 -6 -145 -3 3 -32 70 -63 148 -32
79 -63 145 -70 147 -8 3 -11 -50 -11 -192z"/>
<path d="M1542 657 c-1 -32 -7 -50 -17 -53 -17 -7 -21 -34 -5 -34 6 0 10 -40
10 -99 0 -55 4 -111 10 -125 11 -29 31 -34 50 -11 10 12 8 16 -14 25 -26 9
-26 11 -26 110 0 93 1 100 20 100 11 0 20 7 20 15 0 8 -9 15 -19 15 -17 0 -21
8 -24 53 l-3 52 -2 -48z"/>
<path d="M1390 590 c-12 -12 -18 -25 -14 -31 4 -8 10 -7 17 0 29 29 67 -1 67
-53 0 -19 -5 -26 -19 -26 -10 0 -30 -9 -45 -21 -21 -17 -26 -29 -26 -68 0 -70
30 -91 70 -49 17 18 20 19 20 5 0 -9 5 -17 11 -17 16 0 7 227 -9 258 -16 27
-46 28 -72 2z m70 -168 c0 -33 -25 -72 -46 -72 -8 0 -19 11 -26 25 -15 33 12
75 47 75 21 0 25 -5 25 -28z"/>
<path d="M1638 604 c-12 -12 -8 -206 5 -244 14 -42 49 -53 67 -21 12 24 35 29
27 6 -4 -8 -2 -17 3 -20 6 -4 10 49 10 139 0 91 -4 146 -10 146 -6 0 -10 -43
-10 -110 0 -99 -2 -112 -21 -131 -20 -20 -22 -20 -38 -5 -12 13 -17 43 -21
132 -3 64 -8 112 -12 108z"/>
<path d="M1800 471 c0 -82 4 -142 10 -146 6 -4 10 28 10 89 0 114 13 152 51
148 4 -1 9 8 12 19 6 21 -24 42 -30 22 -2 -5 -10 -19 -18 -29 -14 -18 -14 -18
-15 3 0 12 -4 25 -10 28 -6 4 -10 -43 -10 -134z"/>
<path d="M1947 595 c-26 -26 -40 -85 -34 -149 6 -76 23 -115 54 -122 26 -7 63
19 63 43 0 11 -5 10 -26 -3 -24 -16 -26 -16 -45 3 -11 11 -23 39 -26 62 l-6
41 52 0 51 0 0 41 c0 78 -45 123 -83 84z m57 -37 c9 -12 16 -33 16 -45 0 -21
-5 -23 -46 -23 l-46 0 6 32 c12 59 43 75 70 36z"/>
</g>
</svg>
